<svg width="417" height="417" viewBox="0 0 417 417" fill="none" xmlns="http://www.w3.org/2000/svg">
  <path
    d="M143.835 369.725C134.072 379.488 118.243 379.488 108.48 369.725C98.7166 359.962 98.7166 344.133 108.48 334.37L246.214 196.636C254.024 188.826 254.024 176.163 246.214 168.352L236.314 158.453C226.551 148.69 226.551 132.861 236.314 123.097C246.077 113.334 261.907 113.334 271.67 123.097L313.389 164.817C313.999 165.427 314.571 166.061 315.105 166.715C323.114 176.535 322.542 191.019 313.389 200.172L143.835 369.725Z"
    fill="#E4E4E7" />
  <path
    d="M243.568 17.6781C253.331 7.91501 269.161 7.91501 278.924 17.6781C288.687 27.4412 288.687 43.2704 278.924 53.0335L138.361 193.595C132.113 199.844 132.113 209.975 138.361 216.223L151.089 228.951C160.852 238.714 160.852 254.543 151.089 264.306C141.326 274.069 125.497 274.069 115.734 264.306L74.0143 222.587C73.4041 221.977 72.832 221.343 72.2981 220.688C64.2893 210.869 64.8614 196.384 74.0143 187.231L243.568 17.6781Z"
    fill="#E4E4E7" />
</svg>